<svg xmlns="http://www.w3.org/2000/svg" viewBox="0 0 400 225">
  <defs>
    <linearGradient id="bg" x1="0" y1="0" x2="1" y2="1"><stop offset="0%" stop-color="#f97316"/><stop offset="100%" stop-color="#ea580c"/></linearGradient>
  </defs>
  <rect width="400" height="225" fill="url(#bg)"/>
  
  <g transform="translate(40,30)">
    <rect width="140" height="160" rx="6" fill="white" opacity="0.15" stroke="white" stroke-width="1" opacity="0.3"/>
    <rect x="5" y="5" width="30" height="20" rx="2" fill="white" opacity="0.7"/><rect x="40" y="5" width="30" height="20" rx="2" fill="white" opacity="0.4"/>
    <rect x="75" y="5" width="30" height="20" rx="2" fill="white" opacity="0.9"/><rect x="110" y="5" width="25" height="20" rx="2" fill="white" opacity="0.2"/>
    <rect x="5" y="30" width="30" height="20" rx="2" fill="white" opacity="0.3"/><rect x="40" y="30" width="30" height="20" rx="2" fill="white" opacity="0.8"/>
    <rect x="75" y="30" width="30" height="20" rx="2" fill="white" opacity="0.1"/><rect x="110" y="30" width="25" height="20" rx="2" fill="white" opacity="0.6"/>
    <rect x="5" y="55" width="30" height="20" rx="2" fill="white" opacity="0.5"/><rect x="40" y="55" width="30" height="20" rx="2" fill="white" opacity="0.9"/>
    <rect x="75" y="55" width="30" height="20" rx="2" fill="white" opacity="0.6"/><rect x="110" y="55" width="25" height="20" rx="2" fill="white" opacity="0.8"/>
  </g>
  <g transform="translate(220,60)">
    <circle cx="30" cy="20" r="18" fill="white" opacity="0.6"/><rect x="15" y="42" width="30" height="35" rx="4" fill="white" opacity="0.5"/>
    <text x="30" y="100" fill="white" opacity="0.4" font-size="12" text-anchor="middle">USER</text>
  </g>
  <text x="50" y="210" fill="white" opacity="0.2" font-family="monospace" font-size="16" font-weight="bold">RECOMMENDER</text>
</svg>
