<svg xmlns="http://www.w3.org/2000/svg" viewBox="0 0 400 225">
  <defs>
    <linearGradient id="bg" x1="0" y1="0" x2="1" y2="1"><stop offset="0%" stop-color="#e11d48"/><stop offset="100%" stop-color="#be123c"/></linearGradient>
  </defs>
  <rect width="400" height="225" fill="url(#bg)"/>
  
  <g transform="translate(30,50)">
    <rect width="60" height="45" rx="6" fill="white" opacity="0.3"/><text x="30" y="28" fill="white" opacity="0.8" font-size="11" text-anchor="middle">Layer 1</text>
  </g>
  <line x1="95" y1="72" x2="115" y2="72" stroke="white" stroke-width="2" opacity="0.4"/>
  <g transform="translate(120,50)">
    <rect width="60" height="45" rx="6" fill="white" opacity="0.4"/><text x="30" y="28" fill="white" opacity="0.8" font-size="11" text-anchor="middle">Layer 2</text>
  </g>
  <line x1="185" y1="72" x2="205" y2="72" stroke="white" stroke-width="2" opacity="0.4"/>
  <g transform="translate(210,50)">
    <rect width="60" height="45" rx="6" fill="white" opacity="0.5"/><text x="30" y="28" fill="white" opacity="0.8" font-size="11" text-anchor="middle">Layer 3</text>
  </g>
  <line x1="275" y1="72" x2="295" y2="72" stroke="white" stroke-width="2" opacity="0.4"/>
  <g transform="translate(300,50)">
    <rect width="60" height="45" rx="6" fill="white" opacity="0.6"/><text x="30" y="28" fill="white" opacity="0.8" font-size="11" text-anchor="middle">Loss</text>
  </g>
  <!-- backward arrows -->
  <g opacity="0.6">
    <line x1="340" y1="120" x2="250" y2="120" stroke="#fbbf24" stroke-width="2"/>
    <polygon points="250,116 242,120 250,124" fill="#fbbf24"/>
    <line x1="240" y1="120" x2="160" y2="120" stroke="#fbbf24" stroke-width="2"/>
    <polygon points="160,116 152,120 160,124" fill="#fbbf24"/>
    <line x1="150" y1="120" x2="70" y2="120" stroke="#fbbf24" stroke-width="2"/>
    <polygon points="70,116 62,120 70,124" fill="#fbbf24"/>
  </g>
  <text x="200" y="160" fill="white" opacity="0.5" font-size="13" text-anchor="middle" font-family="serif" font-style="italic">∂L/∂w = ∂L/∂a · ∂a/∂w</text>
  <text x="260" y="210" fill="white" opacity="0.2" font-family="monospace" font-size="16" font-weight="bold">BACKPROP</text>
</svg>
