<svg xmlns="http://www.w3.org/2000/svg" viewBox="0 0 400 225">
  <defs>
    <linearGradient id="bg" x1="0" y1="0" x2="1" y2="1"><stop offset="0%" stop-color="#ec4899"/><stop offset="100%" stop-color="#db2777"/></linearGradient>
  </defs>
  <rect width="400" height="225" fill="url(#bg)"/>
  
  <g opacity="0.15"><rect x="30" y="40" width="80" height="80" rx="6" fill="white"/></g>
  <g opacity="0.5">
    <circle cx="45" cy="55" r="2" fill="white"/><circle cx="55" cy="65" r="2" fill="white"/><circle cx="65" cy="50" r="2" fill="white"/>
    <circle cx="75" cy="70" r="2" fill="white"/><circle cx="50" cy="80" r="2" fill="white"/><circle cx="85" cy="55" r="2" fill="white"/>
    <circle cx="60" cy="95" r="2" fill="white"/><circle cx="95" cy="85" r="2" fill="white"/><circle cx="40" cy="100" r="2" fill="white"/>
  </g>
  <text x="125" y="85" fill="white" opacity="0.6" font-size="28">→</text>
  <g transform="translate(155,40)"><rect width="80" height="80" rx="6" fill="white" opacity="0.3"/>
    <circle cx="40" cy="35" r="18" fill="white" opacity="0.5"/><rect x="25" y="55" width="30" height="20" rx="3" fill="white" opacity="0.4"/>
  </g>
  <text x="250" y="85" fill="white" opacity="0.6" font-size="28">→</text>
  <g transform="translate(285,40)"><rect width="80" height="80" rx="6" fill="white" opacity="0.5"/>
    <circle cx="40" cy="30" r="14" fill="white" opacity="0.8"/><path d="M20,50 L40,70 L60,50" fill="white" opacity="0.7"/>
  </g>
  <text x="200" y="200" fill="white" opacity="0.2" font-family="monospace" font-size="18" font-weight="bold">DIFFUSION</text>
</svg>
