<svg xmlns="http://www.w3.org/2000/svg" viewBox="0 0 400 225">
  <defs>
    <linearGradient id="bg" x1="0" y1="0" x2="1" y2="1"><stop offset="0%" stop-color="#64748b"/><stop offset="100%" stop-color="#475569"/></linearGradient>
  </defs>
  <rect width="400" height="225" fill="url(#bg)"/>
  
  <line x1="40" y1="180" x2="370" y2="180" stroke="white" stroke-width="1.5" opacity="0.3"/>
  <line x1="40" y1="30" x2="40" y2="180" stroke="white" stroke-width="1.5" opacity="0.3"/>
  <polyline points="50,150 80,130 110,140 140,110 170,120 200,90 230,100 260,70 290,80 320,50 350,60" fill="none" stroke="white" stroke-width="2.5" opacity="0.7"/>
  <polyline points="50,150 80,130 110,140 140,110 170,120 200,90 230,100 260,70 290,80 320,50 350,60" fill="url(#bg)" opacity="0.3"/>
  <line x1="50" y1="155" x2="350" y2="55" stroke="#fbbf24" stroke-width="1.5" stroke-dasharray="6,4" opacity="0.5"/>
  <text x="250" y="210" fill="white" opacity="0.2" font-family="monospace" font-size="16" font-weight="bold">TIME SERIES</text>
</svg>
