<svg xmlns="http://www.w3.org/2000/svg" viewBox="0 0 400 225">
  <defs>
    <linearGradient id="bg" x1="0" y1="0" x2="1" y2="1"><stop offset="0%" stop-color="#8b5cf6"/><stop offset="100%" stop-color="#7c3aed"/></linearGradient>
  </defs>
  <rect width="400" height="225" fill="url(#bg)"/>
  
  <g opacity="0.4">
    <line x1="50" y1="40" x2="50" y2="180" stroke="white" stroke-width="1"/><line x1="110" y1="40" x2="110" y2="180" stroke="white" stroke-width="1"/>
    <line x1="170" y1="40" x2="170" y2="180" stroke="white" stroke-width="1"/><line x1="230" y1="40" x2="230" y2="180" stroke="white" stroke-width="1"/>
    <line x1="290" y1="40" x2="290" y2="180" stroke="white" stroke-width="1"/><line x1="350" y1="40" x2="350" y2="180" stroke="white" stroke-width="1"/>
    <line x1="30" y1="60" x2="370" y2="60" stroke="white" stroke-width="1"/><line x1="30" y1="110" x2="370" y2="110" stroke="white" stroke-width="1"/>
    <line x1="30" y1="160" x2="370" y2="160" stroke="white" stroke-width="1"/>
  </g>
  <circle cx="110" cy="110" r="10" fill="#fbbf24" opacity="0.9"/><circle cx="170" cy="60" r="7" fill="white" opacity="0.5"/>
  <circle cx="230" cy="160" r="7" fill="white" opacity="0.5"/><circle cx="290" cy="110" r="7" fill="white" opacity="0.5"/>
  <circle cx="50" cy="60" r="7" fill="white" opacity="0.3"/><circle cx="350" cy="160" r="7" fill="white" opacity="0.3"/>
  <text x="260" y="210" fill="white" opacity="0.2" font-family="monospace" font-size="18" font-weight="bold">TUNING</text>
</svg>
