<svg xmlns="http://www.w3.org/2000/svg" viewBox="0 0 64 64">
  <defs>
    <linearGradient id="bg" x1="0" y1="0" x2="1" y2="1">
      <stop offset="0%" stop-color="#3b82f6"/>
      <stop offset="100%" stop-color="#6366f1"/>
    </linearGradient>
  </defs>
  <rect width="64" height="64" rx="14" fill="url(#bg)"/>
  <!-- Neural network nodes -->
  <circle cx="16" cy="20" r="5" fill="white" opacity="0.9"/>
  <circle cx="16" cy="44" r="5" fill="white" opacity="0.9"/>
  <circle cx="32" cy="16" r="4.5" fill="white" opacity="0.8"/>
  <circle cx="32" cy="32" r="4.5" fill="white" opacity="0.8"/>
  <circle cx="32" cy="48" r="4.5" fill="white" opacity="0.8"/>
  <circle cx="48" cy="26" r="5" fill="white" opacity="0.9"/>
  <circle cx="48" cy="38" r="5" fill="white" opacity="0.9"/>
  <!-- Connections -->
  <line x1="20" y1="20" x2="28" y2="16" stroke="white" stroke-width="1.5" opacity="0.4"/>
  <line x1="20" y1="20" x2="28" y2="32" stroke="white" stroke-width="1.5" opacity="0.4"/>
  <line x1="20" y1="20" x2="28" y2="48" stroke="white" stroke-width="1.5" opacity="0.25"/>
  <line x1="20" y1="44" x2="28" y2="16" stroke="white" stroke-width="1.5" opacity="0.25"/>
  <line x1="20" y1="44" x2="28" y2="32" stroke="white" stroke-width="1.5" opacity="0.4"/>
  <line x1="20" y1="44" x2="28" y2="48" stroke="white" stroke-width="1.5" opacity="0.4"/>
  <line x1="36" y1="16" x2="44" y2="26" stroke="white" stroke-width="1.5" opacity="0.4"/>
  <line x1="36" y1="16" x2="44" y2="38" stroke="white" stroke-width="1.5" opacity="0.25"/>
  <line x1="36" y1="32" x2="44" y2="26" stroke="white" stroke-width="1.5" opacity="0.4"/>
  <line x1="36" y1="32" x2="44" y2="38" stroke="white" stroke-width="1.5" opacity="0.4"/>
  <line x1="36" y1="48" x2="44" y2="26" stroke="white" stroke-width="1.5" opacity="0.25"/>
  <line x1="36" y1="48" x2="44" y2="38" stroke="white" stroke-width="1.5" opacity="0.4"/>
</svg>
